<svg xmlns="http://www.w3.org/2000/svg" viewBox="0 0 64 64" fill="none">
  <defs>
    <linearGradient id="tA" x1="13" y1="8" x2="49" y2="56" gradientUnits="userSpaceOnUse">
      <stop offset="0" stop-color="#d5deeb"/>
      <stop offset="1" stop-color="#8b9cb3"/>
    </linearGradient>
    <linearGradient id="tB" x1="12" y1="6" x2="52" y2="58" gradientUnits="userSpaceOnUse">
      <stop offset="0" stop-color="#2b4f78"/>
      <stop offset="1" stop-color="#132c45"/>
    </linearGradient>
  </defs>
  <rect x="14" y="5.8" width="36" height="52.4" rx="7.2" fill="url(#tA)" stroke="url(#tB)" stroke-width="2.2"/>
  <rect x="18.3" y="11.5" width="27.4" height="41" rx="2.8" fill="#f6f8fb" stroke="#274c73" stroke-width="1.6"/>
  <rect x="26.8" y="8.2" width="10.4" height="1.8" rx=".9" fill="#274c73"/>
  <circle cx="32" cy="55.2" r="2.3" fill="#274c73"/>
  <path d="M21.2 18.3l16.5-.9 5.2 4.2-16.4 1.1-5.3-4.4zM21.5 27.6l16.6-.8 5.2 4.2-16.4 1-5.4-4.4zM21.8 36.9l16.6-.8 5.2 4.2-16.4 1-5.4-4.4z" fill="#8fb0d1" fill-opacity=".35" stroke="#274c73" stroke-width="1.2" stroke-linejoin="round"/>
  <path d="M24.8 20.3h10.8M24.9 29.6h10.8M25.2 38.9h10.7" stroke="#193955" stroke-width="1.5" stroke-linecap="round"/>
  <path d="M39 20.2l1.8 1.4M39.3 29.5l1.8 1.4M39.6 38.8l1.8 1.4" stroke="#274c73" stroke-width="1.4" stroke-linecap="round"/>
</svg>
