<svg xmlns="http://www.w3.org/2000/svg" viewBox="0 0 64 64" fill="none">
  <defs>
    <linearGradient id="gA" x1="14" y1="11" x2="50" y2="53" gradientUnits="userSpaceOnUse">
      <stop offset="0" stop-color="#d8e6f6"/>
      <stop offset="1" stop-color="#8fb1d3"/>
    </linearGradient>
    <linearGradient id="gB" x1="8" y1="8" x2="54" y2="56" gradientUnits="userSpaceOnUse">
      <stop offset="0" stop-color="#2f5f8f"/>
      <stop offset="1" stop-color="#15314f"/>
    </linearGradient>
  </defs>
  <circle cx="32" cy="32" r="19.5" fill="url(#gA)" stroke="url(#gB)" stroke-width="2.2"/>
  <path d="M13 32h38M32 12.5c4.7 4.2 7.4 10.7 7.4 19.5S36.7 47.3 32 51.5M32 12.5c-4.7 4.2-7.4 10.7-7.4 19.5S27.3 47.3 32 51.5" stroke="#173754" stroke-width="1.9" stroke-linecap="round"/>
  <path d="M18.2 22.8c4.1-2.2 8.8-3.4 13.8-3.4s9.7 1.2 13.8 3.4M18.2 41.2c4.1 2.2 8.8 3.4 13.8 3.4s9.7-1.2 13.8-3.4" stroke="#2d567f" stroke-width="1.5" stroke-linecap="round"/>
  <path d="M9.5 22.5c2.6-6.3 8.5-11.4 15.7-13.3" stroke="#183652" stroke-width="2.3" stroke-linecap="round"/>
  <path d="M22 6l4.2 2.7-4.9 1.1" fill="#183652"/>
  <path d="M54.5 41.5c-2.4 6.6-8.2 12-15.7 14" stroke="#183652" stroke-width="2.3" stroke-linecap="round"/>
  <path d="M42 58l-4.3-2.6 4.8-1.3" fill="#183652"/>
  <path d="M19.5 24.5l5.6-3 4.4 1.4 4.5-2.2 5.2 2.6-1.1 5.2-4.1 2.1-2.7 3.2-5.2-.2-3.2 2.2-5.4-2.5-1.2-5.5 2.2-3.3z" fill="#6f95bb" fill-opacity=".25" stroke="#234a70" stroke-width="1.2"/>
</svg>
