<svg xmlns="http://www.w3.org/2000/svg" viewBox="0 0 64 64" fill="none">
  <defs>
    <linearGradient id="pA" x1="17" y1="8" x2="47" y2="57" gradientUnits="userSpaceOnUse">
      <stop offset="0" stop-color="#d9e3ee"/>
      <stop offset="1" stop-color="#8ea3bc"/>
    </linearGradient>
    <linearGradient id="pB" x1="14" y1="6" x2="50" y2="59" gradientUnits="userSpaceOnUse">
      <stop offset="0" stop-color="#2c527d"/>
      <stop offset="1" stop-color="#142f4b"/>
    </linearGradient>
  </defs>
  <path d="M41.6 10.3a6 6 0 0 1 8.4 8.4l-3.1-3.1-3.7 3.7 3.1 3.1a6 6 0 0 1-8.4-8.4l3.7-3.7z" fill="url(#pA)" stroke="url(#pB)" stroke-width="2"/>
  <path d="M35.8 16.2l11.9 11.9-3.7 3.7-12-11.9z" fill="#adc0d4" fill-opacity=".45" stroke="#24486f" stroke-width="1.7" stroke-linejoin="round"/>
  <path d="M12.6 36.1c1.5-2.2 4.1-3.6 6.9-3.6h5.8l3.6-3.6 7.1 7.1-3.6 3.8v5c0 3-2.4 5.4-5.4 5.4h-4.8c-1.9 0-3.6-.7-4.9-2l-3.9-3.9c-1.8-1.9-2.2-4.9-.8-7.3z" fill="url(#pA)" stroke="url(#pB)" stroke-width="2" stroke-linejoin="round"/>
  <path d="M20.8 34.6l8.1 8.1M17.9 42.9h8.7M24.9 47h7.5" stroke="#23496f" stroke-width="1.45" stroke-linecap="round"/>
</svg>
