<svg xmlns="http://www.w3.org/2000/svg" viewBox="0 0 64 64" fill="none">
  <defs>
    <linearGradient id="sA" x1="10" y1="12" x2="54" y2="50" gradientUnits="userSpaceOnUse">
      <stop offset="0" stop-color="#dbe7f2"/>
      <stop offset="1" stop-color="#93aecd"/>
    </linearGradient>
    <linearGradient id="sB" x1="8" y1="10" x2="56" y2="52" gradientUnits="userSpaceOnUse">
      <stop offset="0" stop-color="#315a86"/>
      <stop offset="1" stop-color="#15314d"/>
    </linearGradient>
  </defs>
  <path d="M8.5 17.8c2.6-4.4 7.6-7 13.1-7h20.8c8.2 0 14.8 6.5 14.8 14.6v9.1c0 8-6.5 14.6-14.6 14.6H26.8l-7.7 4.5 1.5-6.1C13.2 45.7 7 39.8 7 31.8v-6.1c0-2.8.6-5.5 1.5-7.9z" fill="url(#sA)" stroke="url(#sB)" stroke-width="2.2" stroke-linejoin="round"/>
  <circle cx="24.6" cy="24.3" r="3.7" fill="#eff4fa" stroke="#254d74" stroke-width="1.5"/>
  <circle cx="32.2" cy="22.4" r="4.2" fill="#eff4fa" stroke="#254d74" stroke-width="1.5"/>
  <circle cx="40.2" cy="24.6" r="3.5" fill="#eff4fa" stroke="#254d74" stroke-width="1.5"/>
  <path d="M18.6 33.9c.9-2.8 3.1-4.4 6-4.4 2.9 0 5.1 1.6 6 4.4M26.4 34.6c.8-2.9 3-4.6 5.8-4.6 2.9 0 5 1.7 5.8 4.6M33.6 33.8c.9-2.7 3-4.2 5.8-4.2 2.8 0 4.9 1.5 5.8 4.2" stroke="#23476c" stroke-width="1.4" stroke-linecap="round"/>
  <path d="M13.8 39.8h35.4" stroke="#2d577f" stroke-width="1.3" stroke-linecap="round" stroke-dasharray="1.6 2.4"/>
</svg>
